<svg id="Layer_1" data-name="Layer 1" xmlns="http://www.w3.org/2000/svg" viewBox="0 0 394.72 70.18"><defs><style>.cls-1{fill:#353535;}.cls-2{fill:#f72b4d;}.cls-3{fill:#3092ec;}.cls-4{fill:#fbb248;}.cls-5{fill:#f15b28;}.cls-6{fill:#24fa99;}.cls-7{fill:#a86bfb;}</style></defs><path class="cls-1" d="M281.43,456.19a21.87,21.87,0,0,1-7.93-1.35,15,15,0,0,1-5.93-4.1,18.39,18.39,0,0,1-3.73-6.79,31.74,31.74,0,0,1-1.27-9.47,13,13,0,0,0-1-5.49,7,7,0,0,0-3.11-3.3l-.83-.38a3.38,3.38,0,0,1-2-3v-2.4a3.4,3.4,0,0,1,2-3l.83-.37a7.16,7.16,0,0,0,3.15-3.34,13.22,13.22,0,0,0,1-5.45,31.65,31.65,0,0,1,1.27-9.47,18,18,0,0,1,3.73-6.76,15.24,15.24,0,0,1,5.89-4.06,22.68,22.68,0,0,1,7.89-1.43h.46a1.67,1.67,0,0,1,1.65,1.65v5.79a1.62,1.62,0,0,1-.45,1.2,1.54,1.54,0,0,1-1.13.45h-.3a9.62,9.62,0,0,0-5.15,1.66,7.9,7.9,0,0,0-2.74,4.39,29.88,29.88,0,0,0-.83,7.78,17.65,17.65,0,0,1-1.54,7.81,8.89,8.89,0,0,1-4,4.36,7.24,7.24,0,0,1,2.9,2.52,14.43,14.43,0,0,1,1.95,4.24,19.78,19.78,0,0,1,.71,5.41,29.92,29.92,0,0,0,.83,7.74,8,8,0,0,0,2.7,4.44,9.42,9.42,0,0,0,5.11,1.65h.38a1.84,1.84,0,0,1,1.13.53,1.52,1.52,0,0,1,.45,1.12v5.79a1.54,1.54,0,0,1-.49,1.2,1.66,1.66,0,0,1-1.16.45Z" transform="translate(-100.71 -386.01)"/><path class="cls-1" d="M469.59,386a22.94,22.94,0,0,1,7.92,1.43,15.27,15.27,0,0,1,5.94,4.06,17.87,17.87,0,0,1,3.72,6.76,31.63,31.63,0,0,1,1.28,9.47,13.42,13.42,0,0,0,1,5.52,7.14,7.14,0,0,0,3.16,3.34l.83.38a3.22,3.22,0,0,1,2,2.93v2.48a3.22,3.22,0,0,1-2,2.93l-.91.45a6.83,6.83,0,0,0-3.08,3.31,13.22,13.22,0,0,0-1,5.41,31.56,31.56,0,0,1-1.28,9.5,18,18,0,0,1-3.72,6.73,15.66,15.66,0,0,1-5.94,4.09,21,21,0,0,1-7.85,1.39h-.45a1.55,1.55,0,0,1-1.65-1.65v-5.79a1.52,1.52,0,0,1,.45-1.12,1.77,1.77,0,0,1,1.05-.53h.3a10,10,0,0,0,5.22-1.61,7.8,7.8,0,0,0,2.75-4.4,30,30,0,0,0,.82-7.74,17.92,17.92,0,0,1,1.51-7.85,9.07,9.07,0,0,1,4-4.4,8.26,8.26,0,0,1-2.93-2.55,12.67,12.67,0,0,1-1.95-4.17,20.48,20.48,0,0,1-.68-5.45,29.94,29.94,0,0,0-.82-7.78,8,8,0,0,0-2.71-4.39,9.1,9.1,0,0,0-5.18-1.58l-.38-.08a1.44,1.44,0,0,1-1.05-.45,1.62,1.62,0,0,1-.45-1.2v-5.79a1.66,1.66,0,0,1,.45-1.16,1.54,1.54,0,0,1,1.2-.49Z" transform="translate(-100.71 -386.01)"/><path class="cls-1" d="M319.18,430l0,.45c-.7,6.51-4.66,10.1-11.14,10.1-8.12,0-12.78-6.48-12.78-17.77s4.91-18.06,13.15-18.06c6,0,9.36,2.79,10.77,9.07l.09.39H330.5l0-.54c-.38-4.7-1.4-7.69-3.64-10.66-4.15-5.49-10.83-8.51-18.82-8.51-15.18,0-24.62,10.79-24.62,28.16s9.33,28,24.34,28c13.49,0,22.29-7.71,22.95-20.12l0-.53Z" transform="translate(-100.71 -386.01)"/><path class="cls-2" d="M391,425.8c.84,1.56,1.49,2.86,2.21,4.12,2.67,4.65,7.23,6.63,12.08,5.28a10.76,10.76,0,1,0-10.47-17.94q-11.8,11.14-23.62,22.27c-4.33,4.1-9.37,6.65-15.39,6.81-10.94.28-20.77-8.32-21.91-18.71a21.39,21.39,0,0,1,17.8-23.93,21.7,21.7,0,0,1,22.08,9.9c1.25,2,1.17,2.67-.55,4.24l-6.79,6.21-.65-2.18a11.06,11.06,0,0,0-11.87-7.77,11,11,0,0,0-9.4,10.21,10.33,10.33,0,0,0,5.86,10c3.77,2,7.6,1.94,11-.76,2.77-2.19,5.34-4.65,7.93-7.07,5.67-5.31,11.29-10.66,16.94-16,7.72-7.3,16.43-9.16,26.27-4.77a5.53,5.53,0,0,0,.65.09c.05-.69.15-1.37.15-2.05,0-4.59,0-9.17,0-13.76,0-2.52,0-2.53,2.44-2.53h8.2c.06.73.15,1.32.15,1.9,0,11.93.05,23.85-.06,35.77a21.23,21.23,0,0,1-14.95,20.06c-8.79,2.76-18.69-.35-23.94-7.54a20.32,20.32,0,0,1-1.37-2.17,2.44,2.44,0,0,1,.48-3.29C386.44,430.19,388.58,428.09,391,425.8Z" transform="translate(-100.71 -386.01)"/><path class="cls-1" d="M439.41,428.81c.36,4.73,3.47,7.65,8.12,7.74a21.28,21.28,0,0,0,10.62-3,1.81,1.81,0,0,1,2.51.33c1.66,1.61,3.44,3.1,5.26,4.71a18.65,18.65,0,0,1-11.8,7.28c-8.12,1.54-15.5.07-21.45-6-6.85-6.93-7.6-19.46-1.89-27.83a21.18,21.18,0,0,1,25.08-7.4c7,2.88,10.5,8.45,11.71,15.66.31,1.87.37,3.77.55,5.65.23,2.29-.25,2.87-2.56,2.87-8,0-16,0-24,0Zm16.62-7.6c-.34-5.56-4.1-8.85-9.25-8.34-4.39.44-7.78,4.27-7.25,8.34Z" transform="translate(-100.71 -386.01)"/><polygon class="cls-2" points="71.36 39.33 96.49 39.33 96.49 28.33 71.36 28.33 71.36 18.45 98.5 18.45 98.5 7.45 58.56 7.45 58.56 61.94 99.8 61.94 99.8 50.94 71.36 50.94 71.36 39.33"/><path class="cls-2" d="M234.33,416.16l-8.2-1.58c-7.86-1.55-9.13-3-9.13-5.86,0-3.38,3.09-5.48,8.07-5.48,6.32,0,9.69,2.44,10,7.27l.06.93h12v-1c-.08-11.51-7.75-17.84-21.6-17.84-13.07,0-20.87,6.4-20.87,17.12,0,8.63,4.51,13,15.57,15.1l7.35,1.44c7.61,1.45,9,3.45,9,6.65,0,3.79-3.58,6.06-9.58,6.06-4.71,0-10.4-1.35-10.81-7.78l-.06-.94H203.7l.07,1.06c.68,11.8,8.75,18.3,22.74,18.3s22.53-6.73,22.53-18C249,422.89,244.5,418.12,234.33,416.16Z" transform="translate(-100.71 -386.01)"/><polygon class="cls-3" points="8.62 15.74 8.62 7.45 4.43 7.45 1.79 7.45 0 7.45 0 8.81 0 15.94 4.43 15.94 8.62 15.94 8.62 15.74"/><polygon class="cls-4" points="8.62 24.43 11.86 24.43 17.23 24.43 17.24 24.43 17.24 18.45 17.24 17.35 17.24 15.94 8.62 15.94 8.62 16.15 8.62 24.43"/><polygon class="cls-5" points="8.62 24.43 4.43 24.43 0 24.43 0 32.93 4.43 32.93 8.62 32.93 8.62 24.43"/><polygon class="cls-6" points="17.24 32.93 25.86 32.93 25.86 24.43 17.24 24.43 17.24 32.68 17.24 32.93"/><polygon class="cls-7" points="17.24 33.17 17.24 32.93 17.23 32.93 11.6 32.93 8.62 32.93 8.62 41.42 11.6 41.42 17.23 41.42 17.24 41.42 17.24 33.17"/><path class="cls-2" d="M147.06,399.86c-3.8-4.49-9-6.4-17.4-6.4H118v11h11.71c7.52,0,11.17,5.33,11.17,16.28S137.18,437,129.66,437H117.94v-9.52h-12.8V448h24.52c8.24,0,13.61-2,17.4-6.48,4.3-5.12,6.57-12.32,6.57-20.8S151.36,405.07,147.06,399.86Z" transform="translate(-100.71 -386.01)"/></svg>