<svg width="395" height="71" viewBox="0 0 395 71" fill="none" xmlns="http://www.w3.org/2000/svg">
<g clip-path="url(#clip0_278_143)">
<path d="M180.72 70.1795C178.016 70.2237 175.327 69.766 172.79 68.8295C170.509 67.9653 168.474 66.5579 166.86 64.7295C165.149 62.7567 163.877 60.4421 163.13 57.9395C162.231 54.865 161.803 51.6722 161.86 48.4695C161.928 46.5887 161.587 44.7156 160.86 42.9795C160.218 41.5649 159.124 40.404 157.75 39.6795L156.92 39.2995C156.337 39.0392 155.84 38.6194 155.486 38.0885C155.133 37.5576 154.936 36.9374 154.92 36.2995V33.8995C154.938 33.2623 155.136 32.643 155.49 32.1126C155.843 31.5821 156.339 31.1618 156.92 30.8995L157.75 30.5295C159.138 29.7922 160.245 28.6185 160.9 27.1895C161.614 25.4639 161.955 23.6064 161.9 21.7395C161.842 18.5368 162.27 15.3437 163.17 12.2695C163.91 9.77293 165.182 7.46654 166.9 5.50952C168.513 3.70803 170.532 2.31636 172.79 1.44952C175.314 0.508031 177.986 0.0238048 180.68 0.0195312H181.14C181.576 0.0247222 181.993 0.200228 182.301 0.508545C182.609 0.816862 182.785 1.23353 182.79 1.66953V7.45953C182.8 7.67964 182.766 7.89959 182.689 8.10593C182.611 8.31226 182.493 8.50065 182.34 8.65955C182.192 8.80734 182.016 8.92346 181.821 9.00082C181.627 9.07819 181.419 9.11517 181.21 9.10953H180.91C179.07 9.15874 177.282 9.73487 175.76 10.7695C174.38 11.8837 173.414 13.4301 173.02 15.1595C172.403 17.7053 172.124 20.321 172.19 22.9395C172.278 25.6262 171.751 28.2974 170.65 30.7495C169.854 32.617 168.442 34.1556 166.65 35.1095C167.826 35.673 168.828 36.5437 169.55 37.6295C170.426 38.9277 171.084 40.3598 171.5 41.8695C171.985 43.6314 172.224 45.4521 172.21 47.2795C172.148 49.8847 172.427 52.4867 173.04 55.0195C173.421 56.7587 174.371 58.3212 175.74 59.4595C177.247 60.4937 179.023 61.0669 180.85 61.1095H181.23C181.657 61.1491 182.057 61.3366 182.36 61.6395C182.507 61.7856 182.623 61.9603 182.701 62.153C182.778 62.3456 182.815 62.552 182.81 62.7595V68.5495C182.82 68.7731 182.782 68.9963 182.697 69.2036C182.613 69.4108 182.484 69.5972 182.32 69.7495C182.006 70.0443 181.59 70.2056 181.16 70.1995L180.72 70.1795Z" fill="#F4F4F4"/>
<path d="M368.88 -0.0100399C371.584 -0.00381272 374.265 0.480295 376.8 1.41995C379.075 2.28084 381.112 3.67281 382.74 5.47995C384.458 7.4355 385.727 9.74261 386.46 12.24C387.364 15.3136 387.796 18.5067 387.74 21.71C387.681 23.5999 388.022 25.4809 388.74 27.2299C389.396 28.6613 390.507 29.8355 391.9 30.5699L392.73 30.95C393.314 31.1888 393.815 31.5938 394.17 32.1147C394.526 32.6356 394.72 33.2494 394.73 33.88V36.36C394.72 36.9905 394.526 37.6043 394.17 38.1252C393.815 38.6461 393.314 39.0511 392.73 39.2899L391.82 39.74C390.448 40.4616 389.361 41.6289 388.74 43.05C388.031 44.7632 387.69 46.6065 387.74 48.46C387.8 51.6733 387.368 54.8769 386.46 57.96C385.719 60.4451 384.451 62.7408 382.74 64.69C381.105 66.4969 379.071 67.8973 376.8 68.78C374.296 69.7403 371.632 70.2121 368.95 70.17H368.5C368.28 70.1847 368.059 70.1521 367.852 70.0744C367.645 69.9967 367.457 69.8757 367.301 69.7194C367.144 69.5632 367.023 69.3753 366.946 69.1684C366.868 68.9616 366.835 68.7405 366.85 68.52V62.7299C366.845 62.5224 366.882 62.316 366.959 62.1234C367.037 61.9308 367.153 61.756 367.3 61.61C367.58 61.3188 367.95 61.1318 368.35 61.08H368.65C370.506 61.0382 372.313 60.4807 373.87 59.47C375.262 58.3601 376.232 56.8075 376.62 55.0699C377.228 52.5365 377.504 49.9346 377.44 47.33C377.346 44.633 377.862 41.9495 378.95 39.4799C379.751 37.6055 381.16 36.0555 382.95 35.08C381.785 34.4749 380.78 33.6008 380.02 32.53C379.121 31.2707 378.46 29.8574 378.07 28.36C377.6 26.5821 377.371 24.7489 377.39 22.91C377.458 20.2919 377.183 17.6763 376.57 15.13C376.176 13.4075 375.224 11.8639 373.86 10.74C372.334 9.6998 370.527 9.14874 368.68 9.15997L368.3 9.07996C368.104 9.08054 367.909 9.04092 367.729 8.96353C367.548 8.88614 367.385 8.77264 367.25 8.62997C367.097 8.47108 366.979 8.28269 366.901 8.07635C366.824 7.87002 366.79 7.65007 366.8 7.42996V1.63995C366.794 1.20957 366.955 0.793653 367.25 0.47995C367.403 0.315966 367.589 0.187195 367.796 0.10257C368.003 0.0179446 368.227 -0.0204905 368.45 -0.0100399H368.88Z" fill="#F4F4F4"/>
<path d="M218.47 43.99V44.44C217.77 50.95 213.81 54.5399 207.33 54.5399C199.21 54.5399 194.55 48.06 194.55 36.77C194.55 25.48 199.46 18.71 207.7 18.71C213.7 18.71 217.06 21.5 218.47 27.78L218.56 28.17H229.79V27.63C229.41 22.93 228.39 19.94 226.15 16.97C222 11.48 215.32 8.45996 207.33 8.45996C192.15 8.45996 182.71 19.25 182.71 36.62C182.71 53.99 192.04 64.62 207.05 64.62C220.54 64.62 229.34 56.91 230 44.5V43.97L218.47 43.99Z" fill="#F4F4F4"/>
<path d="M290.29 39.7902C291.13 41.3502 291.78 42.6502 292.5 43.9102C295.17 48.5602 299.73 50.5402 304.58 49.1902C306.176 48.7592 307.651 47.9664 308.891 46.8732C310.13 45.7801 311.102 44.416 311.729 42.8868C312.357 41.3577 312.623 39.7045 312.509 38.0556C312.394 36.4067 311.901 34.8064 311.068 33.3788C310.234 31.9513 309.084 30.7349 307.704 29.8239C306.325 28.913 304.755 28.3321 303.115 28.1262C301.475 27.9204 299.809 28.0951 298.248 28.6368C296.686 29.1786 295.27 30.0729 294.11 31.2502C286.244 38.6769 278.37 46.1002 270.49 53.5202C266.16 57.6202 261.12 60.1702 255.1 60.3302C244.16 60.6102 234.33 52.0102 233.19 41.6202C232.458 36.0991 233.908 30.5101 237.232 26.0414C240.556 21.5726 245.492 18.5766 250.99 17.6902C255.238 16.9614 259.606 17.5137 263.538 19.2769C267.471 21.04 270.789 23.9341 273.07 27.5902C274.32 29.5902 274.24 30.2602 272.52 31.8302L265.73 38.0402L265.08 35.8602C264.326 33.379 262.725 31.2415 260.555 29.8213C258.385 28.401 255.786 27.7883 253.21 28.0902C250.709 28.4531 248.409 29.6663 246.697 31.5257C244.985 33.3852 243.966 35.7775 243.81 38.3002C243.675 40.3619 244.161 42.4169 245.206 44.1995C246.25 45.9822 247.805 47.4106 249.67 48.3002C253.44 50.3002 257.27 50.2402 260.67 47.5402C263.44 45.3502 266.01 42.8902 268.6 40.4702C274.27 35.1602 279.89 29.8102 285.54 24.4702C293.26 17.1702 301.97 15.3102 311.81 19.7002C312.025 19.743 312.242 19.7731 312.46 19.7902C312.51 19.1002 312.61 18.4202 312.61 17.7402C312.61 13.1502 312.61 8.57019 312.61 3.98019C312.61 1.46019 312.61 1.4502 315.05 1.4502H323.25C323.31 2.1802 323.4 2.77019 323.4 3.35019C323.4 15.2802 323.45 27.2002 323.34 39.1202C323.294 43.6161 321.821 47.9812 319.134 51.5863C316.447 55.1914 312.685 57.8504 308.39 59.1802C299.6 61.9402 289.7 58.8302 284.45 51.6402C283.948 50.9465 283.491 50.2217 283.08 49.4702C282.73 48.9627 282.584 48.3412 282.673 47.7308C282.762 47.1204 283.079 46.5663 283.56 46.1802C285.73 44.1802 287.87 42.0802 290.29 39.7902Z" fill="#F72B4D"/>
<path d="M338.7 42.8001C339.06 47.5301 342.17 50.4501 346.82 50.5401C350.562 50.4914 354.225 49.4566 357.44 47.5401C357.818 47.2561 358.293 47.1316 358.762 47.1933C359.231 47.255 359.658 47.498 359.95 47.8701C361.61 49.4801 363.39 50.9701 365.21 52.5801C362.358 56.433 358.133 59.04 353.41 59.8601C345.29 61.4001 337.91 59.9301 331.96 53.8601C325.11 46.9301 324.36 34.4001 330.07 26.0301C332.819 22.1677 336.785 19.3393 341.332 17.9976C345.879 16.656 350.744 16.8787 355.15 18.6301C362.15 21.5101 365.65 27.0801 366.86 34.2901C367.17 36.1601 367.23 38.0601 367.41 39.9401C367.64 42.2301 367.16 42.8101 364.85 42.8101C356.85 42.8101 348.85 42.8101 340.85 42.8101L338.7 42.8001ZM355.32 35.2001C354.98 29.6401 351.22 26.3501 346.07 26.8601C341.68 27.3001 338.29 31.1301 338.82 35.2001H355.32Z" fill="#F4F4F4"/>
<path d="M71.3601 39.3302H96.4901V28.3302H71.3601V18.4502H98.5001V7.4502H58.5601V61.9402H99.8001V50.9402H71.3601V39.3302Z" fill="#F72B4D"/>
<path d="M133.62 30.1498L125.42 28.5698C117.56 27.0198 116.29 25.5698 116.29 22.7098C116.29 19.3298 119.38 17.2298 124.36 17.2298C130.68 17.2298 134.05 19.6698 134.36 24.4998L134.42 25.4298H146.42V24.4298C146.34 12.9198 138.67 6.58984 124.82 6.58984C111.75 6.58984 103.95 12.9898 103.95 23.7098C103.95 32.3398 108.46 36.7098 119.52 38.8098L126.87 40.2498C134.48 41.6998 135.87 43.6998 135.87 46.8998C135.87 50.6898 132.29 52.9598 126.29 52.9598C121.58 52.9598 115.89 51.6098 115.48 45.1798L115.42 44.2398H102.99L103.06 45.2998C103.74 57.0998 111.81 63.5998 125.8 63.5998C139.79 63.5998 148.33 56.8698 148.33 45.5998C148.29 36.8798 143.79 32.1098 133.62 30.1498Z" fill="#F72B4D"/>
<path d="M8.62 15.7402V7.4502H4.43H1.79H0V8.8102V15.9402H4.43H8.62V15.7402Z" fill="#3092EC"/>
<path d="M8.62012 24.4304H11.8601H17.2301H17.2401V18.4504V17.3504V15.9404H8.62012V16.1504V24.4304Z" fill="#FBB248"/>
<path d="M8.62 24.4297H4.43H0V32.9297H4.43H8.62V24.4297Z" fill="#F15B28"/>
<path d="M17.2402 32.9297H25.8602V24.4297H17.2402V32.6797V32.9297Z" fill="#24FA99"/>
<path d="M17.2401 33.1697V32.9297H17.2301H11.6001H8.62012V41.4197H11.6001H17.2301H17.2401V33.1697Z" fill="#A86BFB"/>
<path d="M46.3502 13.8502C42.5502 9.36019 37.3502 7.4502 28.9502 7.4502H17.2902V18.4502H29.0002C36.5202 18.4502 40.1702 23.7802 40.1702 34.7302C40.1702 45.6802 36.4702 50.9902 28.9502 50.9902H17.2302V41.4702H4.43018V61.9902H28.9502C37.1902 61.9902 42.5602 59.9902 46.3502 55.5102C50.6502 50.3902 52.9202 43.1902 52.9202 34.7102C52.9202 26.2302 50.6502 19.0602 46.3502 13.8502Z" fill="#F72B4D"/>
</g>
<defs>
<clipPath id="clip0_278_143">
<rect width="394.72" height="70.18" fill="white"/>
</clipPath>
</defs>
</svg>
