<svg id="Layer_1" data-name="Layer 1" xmlns="http://www.w3.org/2000/svg" viewBox="0 0 218.25 128.81"><defs><style>.cls-1{fill:#3092ec;}.cls-2{fill:#fbb248;}.cls-3{fill:#f15b28;}.cls-4{fill:#24fa99;}.cls-5{fill:#a86bfb;}.cls-6{fill:#f72b4d;}.cls-7{fill:#353535;}</style></defs><polygon class="cls-1" points="77.86 28.15 77.86 10.67 69.02 10.67 63.45 10.67 59.68 10.67 59.68 13.55 59.68 28.58 69.02 28.58 77.86 28.58 77.86 28.15"/><polygon class="cls-2" points="77.86 46.49 84.69 46.49 96.02 46.49 96.04 46.49 96.04 33.87 96.04 31.54 96.04 28.58 77.86 28.58 77.86 29.01 77.86 46.49"/><polygon class="cls-3" points="77.86 46.49 69.02 46.49 59.68 46.49 59.68 64.41 69.02 64.41 77.86 64.41 77.86 46.49"/><polygon class="cls-4" points="96.04 64.41 114.22 64.41 114.22 46.49 96.04 46.49 96.04 63.89 96.04 64.41"/><polygon class="cls-5" points="96.04 64.93 96.04 64.41 96.02 64.41 84.15 64.41 77.86 64.41 77.86 82.32 84.15 82.32 96.02 82.32 96.04 82.32 96.04 64.93"/><path class="cls-6" d="M346.38,380.86c-8-9.46-19-13.5-36.69-13.5H285v23.2h24.7c15.85,0,23.56,11.24,23.56,34.35s-7.71,34.18-23.56,34.18H285V439H258v43.27h51.72c17.37,0,28.69-4.21,36.7-13.66,9.06-10.81,13.85-26,13.85-43.88C360.24,407,355.46,391.85,346.38,380.86Z" transform="translate(-188.95 -356.7)"/><path class="cls-7" d="M224.19,371.91a21.37,21.37,0,0,1,11.48-3.76h.79c0,.1,0,0,0-.16V356.86l-.13-.16h-.9a40.45,40.45,0,0,0-14.06,2.54,26.66,26.66,0,0,0-10.19,7,31.76,31.76,0,0,0-6.51,11.88,57.89,57.89,0,0,0-2.32,17.29,28.46,28.46,0,0,1-2.14,11.71,16.77,16.77,0,0,1-7.36,7.82l-.2.1-1.47.67c-2,1.14-2.25,2.24-2.25,3.08v4.62c0,.84.25,1.95,2.24,3.09l1.65.75a16.46,16.46,0,0,1,7.3,7.74,28.06,28.06,0,0,1,2.23,11.81,57.94,57.94,0,0,0,2.32,17.29,32.45,32.45,0,0,0,6.52,12,26.32,26.32,0,0,0,10.24,7.06,39.17,39.17,0,0,0,14.14,2.4h.73a.22.22,0,0,0,.16,0,.45.45,0,0,1,0-.12V474.23c0-.07-.08-.13-.24-.16h-.71c-4.72-.33-8.56-1.6-11.43-3.78s-5-5.64-6.28-10.12a60.53,60.53,0,0,1-1.7-15.67,34.72,34.72,0,0,0-1.25-9.56,24.48,24.48,0,0,0-3.32-7.26,11,11,0,0,0-4.34-3.82l-5.85-2.66,5.78-2.8c2.57-1.25,4.64-3.53,6.33-7,1.76-3.61,2.65-8.22,2.65-13.69a60.4,60.4,0,0,1,1.7-15.75A18.18,18.18,0,0,1,224.19,371.91Z" transform="translate(-188.95 -356.7)"/><path class="cls-7" d="M405,415.87l-1.72-.79a16.72,16.72,0,0,1-7.35-7.81,28.81,28.81,0,0,1-2.15-11.86,58.23,58.23,0,0,0-2.31-17.29A31.9,31.9,0,0,0,385,366.24a26.61,26.61,0,0,0-10.26-7,41.28,41.28,0,0,0-14.17-2.54h-.86s0,0,0,.15V368a.71.71,0,0,0,0,.16l.45.06.51.1c4.72.25,8.56,1.47,11.41,3.63s5,5.61,6.27,10a60.4,60.4,0,0,1,1.7,15.75,36.34,36.34,0,0,0,1.19,9.66,21.52,21.52,0,0,0,3.27,7,13,13,0,0,0,4.56,4l5.4,2.69-5.4,2.7a14.4,14.4,0,0,0-6.43,7.06c-1.72,3.56-2.59,8.19-2.59,13.77a60.92,60.92,0,0,1-1.69,15.67c-1.24,4.51-3.39,7.9-6.41,10.09s-6.81,3.34-11.59,3.67h-.51a.59.59,0,0,0-.16.12v11.16a.71.71,0,0,0,0,.16h1a37.73,37.73,0,0,0,14-2.46A27.22,27.22,0,0,0,385,476a31.82,31.82,0,0,0,6.51-11.81,58,58,0,0,0,2.31-17.35,28.49,28.49,0,0,1,2.14-11.63,16.05,16.05,0,0,1,7.25-7.77l1.81-.91c2-1,2.23-2.05,2.23-2.93v-4.77C407.2,417.92,406.93,416.9,405,415.87Z" transform="translate(-188.95 -356.7)"/></svg>